# xmcd CD database file
#
# Track frame offsets:
#	183
#	22605
#	52348
#	74945
#	105370
#	123020
#	141738
#	172438
#	183530
#
# Disc length: 2579 seconds
#
# Revision: 1
# Processed by: cddbd v1.5.1PL0 Copyright (c) Steve Scherf et al.
# Submitted via: CDex 1.51
#
DISCID=8c0a1109
DTITLE=Daniel Thentz 4tet - Secret Love
DYEAR=1990
DGENRE=Jazz
TTITLE0=Secret Love
TTITLE1=Do You Know What it Means to Miss New-Orléans
TTITLE2=M'selle Laurence
TTITLE3=Samia
TTITLE4=Cully's Blues
TTITLE5=38 degrés à l'ombre
TTITLE6=Midnight Waltz
TTITLE7=Wee
TTITLE8=Line for Lyons
EXTD=YEAR: 1990
EXTT0=
EXTT1=
EXTT2=
EXTT3=
EXTT4=
EXTT5=
EXTT6=
EXTT7=
EXTT8=
PLAYORDER=
